 http://www.shotpix.com/images/90772011425640955229.jpeg


Source: RETAIL NTSC DVDR - MATiNE - Thanks Much M8.
 
http://www.imdb.com/title/tt1925479/

When a cop's crooked past comes back to get him, can he do the right thing, or will he succumb to the threats of his dangerous connections?

General
Complete name                            : Officer Down 2013 DVDRip x264 AAC-BiGKATS.mp4
Format                                   : MPEG-4
Format profile                           : Base Media
Codec ID                                 : isom
File size                                : 700 MiB
Duration                                 : 1h 37mn
Overall bit rate mode                    : Variable
Overall bit rate                         : 1 004 Kbps
Encoded date                             : UTC 2013-01-14 09:52:05
Tagged date                              : UTC 2013-01-14 09:52:05

Video
ID                                       : 1
Format                                   : AVC
Format/Info                              : Advanced Video Codec
Format profile                           : High@L4.1
Format settings, CABAC                   : Yes
Format settings, ReFrames                : 3 frames
Codec ID                                 : avc1
Codec ID/Info                            : Advanced Video Coding
Duration                                 : 1h 37mn
Bit rate mode                            : Variable
Bit rate                                 : 873 Kbps
Maximum bit rate                         : 40.0 Mbps
Width                                    : 720 pixels
Height                                   : 304 pixels
Display aspect ratio                     : 2.35:1
Frame rate mode                          : Constant
Frame rate                               : 23.976 fps
Color space                              : YUV
Chroma subsampling                       : 4:2:0
Bit depth                                : 8 bits
Scan type                                : Progressive
Bits/(Pixel*Frame)                       : 0.166
Stream size                              : 608 MiB (87%)
Writing library                          : x264 core 129 r2245 bc13772

Audio
ID                                       : 2
Format                                   : AAC
Format/Info                              : Advanced Audio Codec
Format profile                           : LC
Codec ID                                 : 40
Duration                                 : 1h 37mn
Bit rate mode                            : Variable
Bit rate                                 : 128 Kbps
Maximum bit rate                         : 145 Kbps
Channel(s)                               : 6 channels
Channel positions                        : Front: L C R, Side: L R, LFE
Sampling rate                            : 48.0 KHz
Compression mode                         : Lossy
Stream size                              : 88.9 MiB (13%)
Language                                 : English
Encoded date                             : UTC 2013-01-14 08:39:56
Tagged date                              : UTC 2013-01-14 09:52:39

 
http://www.shotpix.com/images/54892228860792331034.png 
http://www.shotpix.com/images/48994483499845182152.png 
http://www.shotpix.com/images/83610438240375122909.png 
http://www.shotpix.com/images/29914596555936915280.png